<svg width="300" height="71" viewBox="0 0 300 71" fill="none" xmlns="http://www.w3.org/2000/svg">
<g clip-path="url(#clip0_5160_8908)">
<path fill-rule="evenodd" clip-rule="evenodd" d="M38.1571 23.8095C38.5208 26.5532 41.7849 71 41.7849 71H40.2897C40.2897 71 36.8054 50.3328 36.2514 47.0443L33.4346 24.2214C33.231 22.4277 31.1818 20.0361 26.9032 18.0896L2.47639 7.05516L0 0L30.3007 13.6719C34.0353 15.5818 37.5163 19.033 38.1571 23.8095ZM55.0078 13.6719L85.3119 0L82.8322 7.05516L58.4087 18.0896C54.1268 20.0361 52.0809 22.4277 51.874 24.2214L49.0605 47.0443C48.5065 50.3328 45.0189 71 45.0189 71H43.527C43.527 71 46.7877 26.5532 47.1515 23.8095C47.7956 19.033 51.2766 15.5818 55.0078 13.6719ZM175.463 25.1149H164.633L162.437 29.8881H157.404L170.063 4.05572L182.695 29.8881H177.662L175.463 25.1149ZM173.597 21.0326L170.063 13.2733L166.502 21.0326H173.597ZM111.227 9.09464H104.763V29.8881H100.1V9.09464H93.6321V5.01567H111.227V9.09464ZM125.755 5.01567V29.8881H121.089V5.01567H125.755ZM146.744 9.09464V29.8881H142.079V9.09464H135.614V5.01567H153.206V9.09464H146.744ZM196.552 14.5322V29.8881H191.887V4.05572L209.779 20.8333V5.01567H214.444V30.848L196.552 14.5322ZM230.634 5.01567V29.8881H225.969V5.01567H230.634ZM241.828 5.01567H246.494V21.0326C246.494 23.8826 248.894 26.1413 251.924 26.1413C254.954 26.1413 257.354 23.8859 257.354 21.0326V5.01567H262.02V21.8962C262.02 26.5366 257.554 30.2203 251.924 30.2203C246.26 30.2203 241.828 26.5366 241.828 21.8962V5.01567ZM300 4.05572V29.8881H295.338V15.6615L286.573 25.4105L277.843 15.6283V29.8881H273.177V4.05572L286.573 18.7805L300 4.05572ZM107.463 44.4767C114.558 44.4767 120.288 50.1833 120.288 57.2451C120.288 64.3069 114.558 70.0102 107.463 70.0102C100.367 70.0102 94.6334 64.3069 94.6334 57.2451C94.6334 50.1833 100.367 44.4767 107.463 44.4767ZM107.466 49.1204C102.9 49.1204 99.3025 52.7011 99.3025 57.2451C99.3025 61.7858 102.9 65.3698 107.466 65.3698C112.028 65.3698 115.626 61.7858 115.626 57.2451C115.626 52.7011 112.028 49.1204 107.466 49.1204ZM148.577 52.2029C148.577 56.1822 145.376 59.3344 141.278 59.3344H135.814V69.6813H131.148V44.8089H141.278C145.379 44.8056 148.577 48.0574 148.577 52.2029ZM144.348 52.0368C144.348 50.2796 142.913 48.8879 141.147 48.8879H135.818V55.2521H141.147C142.913 55.2521 144.348 53.8271 144.348 52.0368ZM167.9 48.8879V69.6813H163.235V48.8879H156.77V44.8089H174.362V48.8879H167.9ZM188.886 44.8056V69.678H184.224V44.8056H188.886ZM209.181 60.7594L203.418 69.6813H198.088L206.682 56.9461L198.485 44.8056H203.815L209.181 53.0997L214.578 44.8056H219.945L211.714 56.9096L220.345 69.678H214.978L209.181 60.7594ZM231.135 44.8554H229.53V50.4125H228.659V44.8554H227.063V44.1977H231.135V44.8554ZM236.201 49.2699H236.228L237.69 44.1977H238.815V50.4125H237.953V48.0276L238.03 45.636L238.004 45.6327L236.502 50.4158H235.928L234.432 45.6393L234.406 45.6426L234.486 48.0276V50.4125H233.621V44.1977H234.743L236.201 49.2699ZM53.5494 25.9586C53.5494 25.9586 54.1067 23.8726 58.1284 21.8996L81.3036 11.4331L78.8306 18.4783L57.3507 28.1808C55.4751 29.144 53.8297 30.5425 52.705 32.0405L53.5494 25.9586ZM51.0463 44.1745L52.171 36.0597C52.171 36.0597 52.9453 33.6415 56.4162 31.9641L77.3888 22.5838L74.9057 29.6589L56.9502 37.7703C53.9265 39.3946 52.3612 41.9888 51.1698 43.9718C51.1264 44.0383 51.0863 44.108 51.0463 44.1745ZM32.6035 32.0405C31.4822 30.5425 29.8335 29.144 27.9612 28.1808L6.47799 18.4783L4.00828 11.4331L27.1835 21.8996C31.1985 23.8726 31.7625 25.9586 31.7625 25.9586L32.6035 32.0405ZM33.1375 36.0597L34.2623 44.1745C34.2222 44.108 34.1788 44.0383 34.1388 43.9718C32.944 41.9888 31.382 39.3946 28.3583 37.7703L10.4028 29.6589L7.91977 22.5838L28.8923 31.9641C32.3666 33.6415 33.1375 36.0597 33.1375 36.0597Z" fill="#231F20"/>
</g>
<defs>
<clipPath id="clip0_5160_8908">
<rect width="300" height="71" fill="white"/>
</clipPath>
</defs>
</svg>
