<svg width="331" height="140" viewBox="0 0 331 140" fill="none" xmlns="http://www.w3.org/2000/svg">
<path fill-rule="evenodd" clip-rule="evenodd" d="M98.0295 64.7872C96.0329 62.0585 92.7717 59.8621 87.9131 59.8621C80.2593 59.8621 73.9365 65.12 73.87 73.3729C73.87 81.5592 80.1262 86.8836 87.8466 86.8836C91.973 86.8836 95.3673 85.3528 97.963 82.9568V96.2013C97.963 96.6672 97.6302 97 97.1643 97H0.792302C-0.0063611 97 -0.27258 96.0682 0.326417 95.5358L36.0666 69.3795V85.8853C36.0666 86.218 36.3328 86.4177 36.599 86.4177H50.2429C55.2345 86.4177 57.8302 83.2896 57.8302 79.2963C57.8302 76.501 56.2328 74.1715 54.0365 73.2398C53.7037 73.1066 53.7037 72.6408 54.0365 72.5076C55.9666 71.6424 57.3643 69.6458 57.3643 66.917C57.3643 63.4561 54.8352 60.2615 49.8435 60.2615H48.579L96.5653 25.1868C97.1643 24.7209 98.0295 25.1868 98.0295 25.9189V64.7872ZM68.3459 86.4177C68.6121 86.4177 68.8118 86.218 68.8118 85.9518V60.7274C68.8118 60.4611 68.6121 60.2615 68.3459 60.2615H63.7536C63.4874 60.2615 63.2877 60.4611 63.2877 60.7274V85.9518C63.2877 86.218 63.4874 86.4177 63.7536 86.4177H68.3459Z" fill="#34313F"/>
<path d="M48.6455 70.6448H42.1897C41.9235 70.6448 41.6572 70.4451 41.6572 70.1789V65.4534C41.6572 65.3203 41.7904 65.1872 41.9235 65.1872H48.6455C50.5091 65.1872 51.7071 66.3187 51.7071 67.916C51.7071 69.5799 50.5091 70.6448 48.6455 70.6448Z" fill="#34313F"/>
<path d="M48.9118 81.5598H42.1897C41.9235 81.5598 41.6572 81.2936 41.6572 81.0274V76.1023C41.6572 75.7695 41.9235 75.5699 42.1897 75.5699H48.9118C51.0415 75.5699 52.2395 76.901 52.2395 78.5648C52.2395 80.4284 50.975 81.5598 48.9118 81.5598Z" fill="#34313F"/>
<path d="M87.9132 64.7879C90.4423 64.7879 92.572 66.119 93.8366 67.7829C93.9697 67.9825 94.3025 68.1157 94.5687 68.0491L98.0961 66.119V72.0424H87.1145C86.8483 72.0424 86.582 72.2421 86.582 72.5749V76.302C86.582 76.5682 86.7817 76.8344 87.1145 76.8344H93.0379C93.2376 76.8344 93.4372 77.0341 93.4372 77.2337V79.7628C93.4372 79.8959 93.3707 80.0291 93.3041 80.0956C92.1727 81.0274 90.1095 81.9592 87.9132 81.9592C83.1212 81.9592 79.6603 78.2986 79.6603 73.3735C79.6603 68.4484 83.1212 64.7879 87.9132 64.7879Z" fill="#34313F"/>
<path d="M115.4 59.8628C107.946 59.8628 102.156 65.3203 102.156 73.3735C102.156 81.3602 107.946 86.8842 115.4 86.9508C120.192 86.9508 123.321 84.4217 125.251 81.4267C125.384 81.1605 125.317 80.8943 125.051 80.7612L122.056 79.2304C121.856 79.0973 121.657 79.1638 121.524 79.3635C120.259 81.3602 117.93 82.8244 115.4 82.8244C110.409 82.8244 106.682 78.8311 106.682 73.3735C106.682 67.8494 110.409 63.9227 115.4 63.9227C117.93 63.9227 120.259 65.3869 121.524 67.3835C121.59 67.5832 121.856 67.6498 122.056 67.5167L125.051 65.9193C125.317 65.8528 125.384 65.52 125.251 65.3203C123.387 62.3253 120.259 59.8628 115.4 59.8628Z" fill="#34313F"/>
<path fill-rule="evenodd" clip-rule="evenodd" d="M137.164 60.3287C131.573 61.7929 127.846 66.8511 127.846 73.3735C127.846 81.1605 133.171 86.8842 140.758 86.9508C147.214 86.9508 152.072 82.7578 153.337 76.6347C155.4 66.718 146.681 57.7996 137.164 60.3287ZM140.691 63.9227C145.75 63.9227 149.077 67.9825 149.077 73.3735C149.077 78.698 145.816 82.8244 140.691 82.8244C135.567 82.8244 132.306 78.7645 132.306 73.3735C132.306 67.9825 135.567 63.9227 140.691 63.9227Z" fill="#34313F"/>
<path d="M180.758 66.1856V86.0856C180.758 86.2852 180.957 86.4184 181.024 86.4184H185.017C185.217 86.4184 185.35 86.2852 185.35 86.0856V60.5283C185.35 60.3287 185.217 60.1956 185.017 60.1956H179.294C179.027 60.1956 178.761 60.3287 178.695 60.5949L171.773 78.5648L164.784 60.5949C164.651 60.3287 164.452 60.1956 164.185 60.1956H158.462C158.262 60.1956 158.129 60.3287 158.129 60.5283V86.0856C158.129 86.2852 158.262 86.4184 158.462 86.4184H162.455C162.655 86.4184 162.788 86.2852 162.788 86.0856V66.1856L170.774 86.2187C170.774 86.2853 170.908 86.3518 170.974 86.3518H172.638C172.705 86.3518 172.838 86.2853 172.838 86.2187L180.758 66.1856Z" fill="#34313F"/>
<path d="M226.015 60.728V85.9525C226.015 86.2187 226.215 86.4184 226.481 86.2187H243.453C243.719 86.2187 243.919 86.019 243.919 85.7528V82.6913C243.919 82.425 243.719 82.2254 243.453 82.2254H231.074C230.807 82.2254 230.608 82.0257 230.608 81.7595V75.4367C230.608 75.1705 230.807 74.9709 231.074 74.9709H243.187C243.453 74.9709 243.652 74.7712 243.652 74.505V71.4434C243.652 71.1772 243.453 70.9775 243.187 70.9775H231.074C230.807 70.9775 230.608 70.7779 230.608 70.5116V64.7213C230.608 64.4551 230.807 64.2555 231.074 64.2555H243.453C243.719 64.2555 243.919 64.0558 243.919 63.7896V60.728C243.919 60.4618 243.719 60.2621 243.453 60.2621H226.481C226.215 60.2621 226.015 60.4618 226.015 60.728Z" fill="#34313F"/>
<path fill-rule="evenodd" clip-rule="evenodd" d="M259.692 76.8344L265.216 86.1521C265.349 86.3518 265.483 86.4184 265.682 86.4184H269.875C270.275 86.4184 270.474 86.019 270.275 85.6863C269.01 83.7562 265.682 78.4317 264.617 76.7013C264.484 76.3685 264.617 76.0357 264.95 75.9692C267.879 75.2371 270.541 72.7745 270.541 68.4484C270.541 63.5899 267.146 60.2621 261.955 60.2621H250.907C250.641 60.2621 250.441 60.4618 250.441 60.728V85.9525C250.441 86.2187 250.641 86.4184 250.907 86.4184H254.501C254.767 86.4184 254.967 86.2187 254.967 85.9525V77.1006C254.967 76.8344 255.167 76.6347 255.433 76.6347H259.293C259.426 76.6347 259.626 76.7013 259.692 76.8344ZM261.356 64.2555C263.952 64.2555 265.815 65.8528 265.815 68.3819C265.815 70.9775 263.952 72.5749 261.356 72.5749H255.499C255.233 72.5749 255.033 72.3752 255.033 72.109V64.7213C255.033 64.4551 255.233 64.2555 255.499 64.2555H261.356Z" fill="#34313F"/>
<path d="M301.556 60.728V85.9525C301.556 86.2187 301.755 86.4184 302.021 86.5515H319.06C319.326 86.5515 319.525 86.3518 319.525 86.0856V82.9575C319.525 82.6913 319.326 82.4916 319.06 82.4916H306.614C306.348 82.4916 306.148 82.2919 306.148 82.0257V75.6364C306.148 75.3702 306.348 75.1705 306.614 75.1705H318.727C318.993 75.1705 319.193 74.9709 319.193 74.7046V71.5765C319.193 71.3103 318.993 71.1106 318.727 71.1106H306.614C306.348 71.1106 306.148 70.911 306.148 70.6448V64.7879C306.148 64.5217 306.348 64.322 306.614 64.322H319.06C319.326 64.322 319.525 64.1223 319.525 63.8561V60.728C319.525 60.4618 319.326 60.2621 319.06 60.2621H302.021C301.755 60.2621 301.556 60.4618 301.556 60.728Z" fill="#34313F"/>
<path d="M287.113 59.7297C279.659 59.7297 273.869 65.1872 273.869 73.2404C273.869 81.2936 279.659 86.7511 287.113 86.8177C291.905 86.8177 295.033 84.2886 296.963 81.2936C297.096 81.0274 297.03 80.7612 296.764 80.6281L293.769 79.0973C293.569 78.9642 293.369 79.0307 293.236 79.2304C291.972 81.2271 289.642 82.6913 287.113 82.6913C282.121 82.6913 278.394 78.698 278.394 73.2404C278.394 67.7163 282.121 63.7896 287.113 63.7896C289.642 63.7896 291.972 65.2538 293.236 67.2504C293.303 67.4501 293.569 67.5167 293.769 67.3835L296.764 65.7862C297.03 65.7197 297.096 65.3869 296.963 65.1872C295.1 62.1922 291.972 59.7297 287.113 59.7297Z" fill="#34313F"/>
<path d="M214.701 66.1856V86.0856C214.701 86.2852 214.834 86.4184 214.967 86.4184H218.96C219.16 86.4184 219.293 86.2852 219.293 86.0856V60.5283C219.293 60.3287 219.16 60.1956 218.96 60.1956H213.237C212.97 60.1956 212.704 60.3287 212.638 60.5949L205.716 78.5648L198.728 60.5949C198.595 60.3287 198.395 60.1956 198.129 60.1956H192.405C192.205 60.1956 192.072 60.3287 192.072 60.5283V86.0856C192.072 86.2852 192.205 86.4184 192.405 86.4184H196.398C196.598 86.4184 196.731 86.2852 196.731 86.0856V66.1856L204.718 86.2187C204.718 86.2853 204.851 86.3518 204.917 86.3518H206.581C206.648 86.3518 206.781 86.2853 206.781 86.2187L214.701 66.1856Z" fill="#34313F"/>
</svg>
