<svg width="284" height="140" viewBox="0 0 284 140" fill="none" xmlns="http://www.w3.org/2000/svg">
<path d="M7 50.7643L39.5026 32L71.9398 50.7315V88.2438L62.6615 93.5921V56.1209L39.4371 42.7131L16.2128 56.1209L16.2783 93.6085L7 88.2438V50.7643Z" fill="#F26322"/>
<path d="M39.4699 96.2951L44.1049 93.6004V56.121L53.3832 61.4775V98.9652L39.4617 107L25.5566 98.9652L25.5402 61.4775L34.8103 56.121V93.625L39.4699 96.2951Z" fill="#F26322"/>
<path d="M105.949 83.2317L93.1903 50.9941H88.4897V87.933H91.6753V55.7446H91.7818C91.9892 56.3289 92.1967 56.9322 92.4042 57.5547C92.5789 58.0734 92.7699 58.6167 92.9774 59.1846C93.1848 59.7525 93.3923 60.2766 93.5998 60.7572L104.401 87.933H107.448L118.143 60.749C118.306 60.233 118.511 59.6842 118.732 59.0945C118.956 58.5102 119.155 57.9779 119.33 57.4974C119.532 56.9131 119.72 56.3289 119.895 55.7446H120.001V87.933H123.359V50.9941H118.503L106.055 83.2317H105.949Z" fill="#4D4D4D"/>
<path fill-rule="evenodd" clip-rule="evenodd" d="M130.361 86.6964C131.179 87.3386 132.118 87.8118 133.12 88.0887L133.112 88.0969C134.239 88.4157 135.405 88.5729 136.576 88.5638C137.848 88.5692 138.984 88.4327 139.983 88.1543C140.906 87.9116 141.792 87.5481 142.62 87.0731C143.331 86.6621 143.983 86.1581 144.561 85.5743C145.052 85.0706 145.509 84.5343 145.928 83.9689H146.067V84.5341C146.133 85.8391 146.512 86.7946 147.206 87.4007C147.899 88.0068 148.83 88.3099 149.998 88.3099C150.433 88.3179 150.868 88.2739 151.292 88.1788C151.591 88.1057 151.884 88.0098 152.168 87.8922V85.5661H152.013L151.991 85.5719L151.99 85.5721C151.754 85.6351 151.548 85.6899 151.366 85.7217C151.187 85.7539 151.007 85.7704 150.825 85.7708C150.241 85.7326 149.802 85.5333 149.507 85.1729C149.212 84.8126 149.065 84.2365 149.065 83.4448V68.9313C149.065 66.0046 148.221 63.8942 146.534 62.6001C144.847 61.306 142.541 60.6589 139.614 60.6589C136.17 60.6589 133.579 61.4343 131.843 62.985C130.107 64.5357 129.151 66.6025 128.977 69.1852H132.13C132.37 65.221 134.867 63.2389 139.623 63.2389C141.686 63.2389 143.27 63.6785 144.372 64.5576C145.475 65.4367 146.027 66.7881 146.027 68.6119V69.1279C146.027 69.8159 145.898 70.3592 145.642 70.7578C145.385 71.1564 144.973 71.4758 144.405 71.716C143.837 71.9563 143.098 72.1556 142.186 72.3139C141.274 72.4723 140.163 72.6197 138.853 72.7562C137.421 72.9141 135.999 73.1548 134.595 73.477C133.268 73.7882 132.105 74.2442 131.106 74.8448C130.125 75.4317 129.308 76.2572 128.731 77.2446C128.147 78.2438 127.855 79.5352 127.855 81.1187C127.855 82.3582 128.079 83.442 128.526 84.3703C128.953 85.2754 129.58 86.071 130.361 86.6964ZM143.807 83.4939C143.048 84.2201 142.109 84.8153 140.99 85.2794C139.871 85.7435 138.588 85.9756 137.141 85.9756C136.377 85.9798 135.613 85.9029 134.865 85.7463C134.189 85.6096 133.548 85.3365 132.981 84.9436C132.437 84.5538 131.994 84.04 131.687 83.4448C131.36 82.8223 131.196 82.0469 131.196 81.1187C131.196 79.9775 131.403 79.0547 131.818 78.3503C132.222 77.6541 132.801 77.0754 133.497 76.6713C134.201 76.2563 135.037 75.956 136.003 75.7703C136.969 75.5847 138.02 75.4045 139.156 75.2297C140.466 75.0605 141.733 74.8448 142.956 74.5827C144.179 74.3206 145.221 73.9493 146.084 73.4688V78.2766C146.077 79.255 145.872 80.2219 145.48 81.1187C145.089 82.0155 144.52 82.8235 143.807 83.4939Z" fill="#4D4D4D"/>
<path fill-rule="evenodd" clip-rule="evenodd" d="M157.655 95.3043C155.864 93.9775 154.849 92.3148 154.609 90.3164H157.704C157.983 91.8671 158.818 92.9783 160.21 93.6499C161.602 94.3215 163.265 94.6573 165.197 94.6573C168.058 94.6573 170.168 93.9775 171.527 92.6179C172.887 91.2583 173.567 89.3881 173.567 87.0074V82.773H173.411C172.412 84.2855 171.257 85.4376 169.947 86.2293C168.637 87.0211 166.966 87.4169 164.935 87.4169C163.177 87.4169 161.594 87.0893 160.186 86.4341C158.794 85.7967 157.559 84.8631 156.566 83.6985C155.567 82.53 154.8 81.1267 154.265 79.4886C153.73 77.8505 153.462 76.0513 153.462 74.0911C153.462 71.9234 153.771 70.0041 154.388 68.3332C155.005 66.6624 155.832 65.2591 156.869 64.1233C157.879 63.0054 159.123 62.1244 160.513 61.5433C161.911 60.958 163.412 60.66 164.927 60.667C166.991 60.667 168.694 61.0901 170.037 61.9365C171.38 62.7828 172.499 63.9267 173.395 65.3683H173.55V61.2239H176.719V86.9009C176.719 89.8604 175.892 92.2548 174.238 94.084C172.207 96.2189 169.229 97.2864 165.304 97.2864C161.995 97.2864 159.446 96.623 157.655 95.2962V95.3043ZM171.658 81.7819C173.072 79.8162 173.779 77.2335 173.779 74.0338C173.779 72.4503 173.608 71.0033 173.264 69.6928C172.92 68.3824 172.385 67.2548 171.658 66.3102C170.945 65.371 170.015 64.618 168.948 64.1151C167.861 63.5964 166.595 63.337 165.148 63.337C162.495 63.337 160.437 64.3172 158.974 66.2774C157.51 68.2377 156.779 70.8559 156.779 74.132C156.767 75.5518 156.941 76.967 157.295 78.3419C157.639 79.6306 158.155 80.7499 158.843 81.7C159.515 82.6329 160.399 83.3934 161.422 83.9196C162.454 84.4547 163.677 84.7223 165.091 84.7223C168.05 84.7223 170.236 83.7394 171.65 81.7737L171.658 81.7819Z" fill="#4D4D4D"/>
<path fill-rule="evenodd" clip-rule="evenodd" d="M183.926 84.6077C184.986 85.8702 186.319 86.8756 187.824 87.5481C189.374 88.2524 191.149 88.6046 193.147 88.6046C196.171 88.6046 198.598 87.8129 200.427 86.2294C202.256 84.6459 203.462 82.5273 204.046 79.8736H200.943C200.43 81.6974 199.562 83.1525 198.339 84.2391C197.116 85.3257 195.385 85.869 193.147 85.869C191.629 85.869 190.302 85.5933 189.167 85.0418C188.061 84.5164 187.095 83.736 186.35 82.7648C185.583 81.7489 185.006 80.603 184.646 79.3822C184.238 78.0154 184.02 76.5987 183.999 75.1723H204.349C204.354 73.35 204.165 71.5324 203.784 69.7502C203.402 67.992 202.755 66.4331 201.844 65.0735C200.936 63.7182 199.714 62.6026 198.281 61.8219C196.818 61.0138 195.019 60.6097 192.885 60.6097C191.023 60.6097 189.344 60.9619 187.848 61.6663C186.372 62.356 185.067 63.3627 184.024 64.6148C182.976 65.8707 182.16 67.3504 181.576 69.054C180.991 70.7577 180.699 72.6087 180.699 74.6072C180.699 76.6002 180.975 78.4512 181.526 80.1603C182.078 81.8694 182.878 83.3518 183.926 84.6077ZM198.928 65.9499C199.583 66.7962 200.083 67.7954 200.427 68.9476C200.778 70.1484 200.968 71.3905 200.992 72.6415H184.049C184.169 71.3701 184.456 70.1201 184.9 68.923C185.299 67.839 185.884 66.8328 186.628 65.9499C187.36 65.1002 188.268 64.4208 189.29 63.9596C190.311 63.4791 191.509 63.2388 192.885 63.2388C194.26 63.2388 195.448 63.4791 196.447 63.9596C197.419 64.4192 198.269 65.101 198.928 65.9499Z" fill="#4D4D4D"/>
<path d="M211.531 61.2241V65.3029H211.638C212.553 63.9412 213.762 62.8021 215.176 61.9694C216.639 61.0903 218.437 60.6507 220.572 60.6507C223.051 60.6507 225.093 61.366 226.698 62.7966C228.303 64.2272 229.102 66.2858 229.097 68.9722V87.9413H225.895V69.2835C225.895 67.2522 225.352 65.7616 224.265 64.8115C223.179 63.8614 221.689 63.3891 219.794 63.3945C218.701 63.3884 217.616 63.5828 216.592 63.9679C215.625 64.3265 214.731 64.8595 213.955 65.5404C213.2 66.2074 212.592 67.0247 212.17 67.9402C211.733 68.896 211.513 69.9363 211.523 70.9871V87.9413H208.329V61.2241H211.531Z" fill="#4D4D4D"/>
<path d="M235.968 83.3381C235.968 85.0581 236.432 86.2894 237.36 87.032V87.0238C238.288 87.7664 239.527 88.1377 241.078 88.1377C242.08 88.1481 243.076 87.9903 244.026 87.6709V84.9353H243.87C243.56 85.0607 243.24 85.1566 242.912 85.2219C242.53 85.307 242.14 85.3509 241.749 85.353C240.892 85.353 240.248 85.1728 239.817 84.8124C239.385 84.452 239.17 83.7886 239.17 82.8221V63.8613H244.132V61.2239H239.17V53.0089H235.968V61.2239H231.939V63.8613H235.968V83.3381Z" fill="#4D4D4D"/>
<path fill-rule="evenodd" clip-rule="evenodd" d="M253.607 87.548C252.106 86.8646 250.775 85.8577 249.709 84.5995C248.639 83.3436 247.82 81.8639 247.252 80.1603C246.685 78.4567 246.401 76.6056 246.401 74.6071C246.401 72.6087 246.685 70.7576 247.252 69.054C247.82 67.3504 248.639 65.8679 249.709 64.6066C250.776 63.3488 252.107 62.342 253.607 61.6581C255.141 60.9537 256.872 60.6015 258.799 60.6015C260.726 60.6015 262.449 60.9537 263.966 61.6581C265.457 62.3469 266.779 63.3532 267.84 64.6066C268.91 65.8625 269.718 67.3449 270.264 69.054C270.81 70.7631 271.085 72.6141 271.091 74.6071C271.091 76.6056 270.815 78.4567 270.264 80.1603C269.712 81.8639 268.904 83.3436 267.84 84.5995C266.779 85.8532 265.457 86.8596 263.966 87.548C262.454 88.2524 260.732 88.6046 258.799 88.6046C256.866 88.6046 255.136 88.2524 253.607 87.548ZM262.73 85.0418C263.854 84.4676 264.827 83.6372 265.571 82.6174C266.33 81.5854 266.898 80.3787 267.275 78.9972C268.033 76.1196 268.033 73.0946 267.275 70.2171C266.898 68.8356 266.33 67.6289 265.571 66.5969C264.828 65.5765 263.854 64.7459 262.73 64.1725C261.594 63.5828 260.287 63.2907 258.807 63.2961C257.328 63.3016 256.009 63.5937 254.852 64.1725C253.734 64.7555 252.762 65.5844 252.01 66.5969C251.235 67.6289 250.659 68.8356 250.282 70.2171C249.526 73.0949 249.526 76.1194 250.282 78.9972C250.659 80.3732 251.235 81.5799 252.01 82.6174C252.763 83.6291 253.734 84.4578 254.852 85.0418C255.971 85.626 257.289 85.9182 258.807 85.9182C260.325 85.9182 261.632 85.626 262.73 85.0418Z" fill="#4D4D4D"/>
<path fill-rule="evenodd" clip-rule="evenodd" d="M275.038 62.436L276.176 64.0659L276.823 63.9103L275.726 62.3541C276.201 62.2067 276.496 61.8545 276.496 61.3057C276.496 60.5931 275.963 60.1918 275.169 60.1918H274.014V64.0086H274.669V62.436H275.038ZM274.669 60.7979H275.177V60.7897C275.603 60.7897 275.841 60.9699 275.841 61.3549C275.841 61.7398 275.57 61.92 275.144 61.92H274.669V60.7979Z" fill="#4D4D4D"/>
<path fill-rule="evenodd" clip-rule="evenodd" d="M271.828 62.2312C271.828 64.287 273.204 65.663 275.185 65.663C277.143 65.663 278.551 64.287 278.551 62.2312C278.551 60.1754 277.134 58.7831 275.185 58.7831C273.236 58.7831 271.828 60.1754 271.828 62.2312ZM272.311 62.223C272.311 60.2737 273.589 59.1762 275.185 59.1762C276.79 59.1762 278.076 60.2901 278.076 62.223C278.076 64.156 276.79 65.2535 275.185 65.2535C273.58 65.2535 272.311 64.1724 272.311 62.223Z" fill="#4D4D4D"/>
</svg>
