<svg width="238" height="140" viewBox="0 0 238 140" fill="none" xmlns="http://www.w3.org/2000/svg">
<path d="M130.616 53.9318H139.008L130.817 105.311L127.63 123H119.239L122.566 103.854L113.486 53.9318H121.874L126.621 82.1059L130.616 53.9318V53.9318ZM157.729 61.2363C157.729 60.6085 157.369 59.8676 156.639 59.5003C156.043 59.1927 155.445 59.0232 154.662 59.0232C153.881 59.0232 153.28 59.1927 152.681 59.5003C151.957 59.8676 151.591 60.6085 151.591 61.2363V91.1966C151.591 91.8276 151.957 92.5653 152.681 92.9357C153.28 93.2371 153.881 93.4097 154.662 93.4097C155.445 93.4097 156.043 93.237 156.639 92.9357C157.369 92.5653 157.729 91.8276 157.729 91.1966V61.2363ZM143.033 37.2499H151.591V54.0193C152.706 53.7086 153.787 53.5642 154.662 53.5642C155.689 53.5642 156.626 53.5986 158.017 53.7118C160.201 53.8876 161.884 54.3334 163.645 55.5514C165.412 56.7694 166.29 59.0296 166.29 60.6682V91.7618C166.29 93.4067 165.409 95.6669 163.645 96.8849C161.884 98.0998 160.201 98.5487 158.017 98.7213C156.623 98.8344 155.689 98.8658 154.662 98.8658C153.634 98.8658 152.7 98.8344 151.309 98.7213C149.122 98.5486 147.436 98.0998 145.675 96.8849C143.914 95.6669 143.033 93.4067 143.033 91.7618V37.25V37.2499ZM59.2948 67.7545C59.3826 78.2268 57.6592 87.9614 54.0933 97.3099C48.8197 97.9377 45.0971 98.3238 40.0115 98.5122V90.3754C42.8536 90.005 43.9847 89.9328 46.8989 89.5906C49.2709 82.8257 50.471 75.7249 50.3958 67.7608C50.471 59.7936 49.2709 52.6896 46.8989 45.9247C43.9847 45.5825 42.8536 45.5103 40.0115 45.1367V37C45.0971 37.1914 48.8197 37.5713 54.0933 38.1992C57.6592 47.5508 59.3826 57.2885 59.2948 67.7545M6.00277 67.7545C5.9213 57.2885 7.63531 47.5508 11.2075 38.1992C16.4811 37.5713 20.2444 37.1915 25.3331 37V45.1367C22.4879 45.5103 21.316 45.5825 18.4019 45.9247C16.0361 52.6896 14.8297 59.7936 14.9018 67.7608C14.8296 75.7249 16.0361 82.8257 18.4019 89.5906C21.316 89.9328 22.4879 90.005 25.3331 90.3754L25.3306 98.5122C20.245 98.3238 16.4817 97.9377 11.2081 97.3099C7.63593 87.9614 5.92193 78.2268 6.0034 67.7545M35.8678 54.6962C38.2304 54.8439 40.5805 55.1388 42.8899 55.5846C41.4234 61.2979 38.7694 67.1211 35.8177 72.5958C37.4565 75.9296 39.0483 78.9118 40.8563 82.0196C38.4874 82.3869 35.8114 82.6757 33.4049 82.7291C28.2347 74.5358 23.453 65.0335 21.9583 55.5877C24.0609 55.1828 26.2011 54.8971 28.3537 54.737C29.4536 57.9359 30.7132 61.2037 32.1014 64.4622C33.4926 61.188 34.7585 57.9107 35.8678 54.6962M98.5393 59.0094C97.7559 59.0094 97.1543 59.1852 96.5589 59.4866C95.8351 59.8538 95.4685 60.5947 95.4685 61.2225V98.3872L86.7606 98.3847V37.2493H95.3244V54.0501C96.4869 53.708 97.6243 53.5541 98.5393 53.5541C99.5671 53.5541 100.501 53.5885 101.895 53.7018C104.082 53.8776 105.762 54.3202 107.523 55.5351C109.284 56.7562 110.164 59.0102 110.164 60.6551V98.3849L101.604 98.3874V61.2226C101.604 60.5948 101.247 59.854 100.513 59.4867C99.918 59.1853 99.3195 59.0095 98.5393 59.0095M194.372 37.2491H202.933V42.796H194.372V37.2491ZM194.372 53.9307H202.933V98.3814H194.372V53.9307V53.9307ZM208.255 65.4297V61.3237C208.255 59.6819 209.136 57.3589 210.9 56.0154C212.661 54.6749 214.35 54.0785 216.534 53.7457C217.925 53.5353 218.856 53.3973 219.884 53.3973C220.914 53.3973 221.861 53.5324 223.255 53.7457C225.439 54.0816 227.109 54.6906 228.87 56.0405C230.631 57.384 231.509 59.707 231.509 61.3488V66.5944L222.951 66.5969V61.0814C222.951 60.4535 222.591 59.7158 221.861 59.3423C221.269 59.044 220.664 58.8714 219.884 58.8714C219.103 58.8714 218.502 59.0442 217.903 59.3423C217.179 59.7158 216.816 60.4535 216.816 61.0814V64.1389C216.816 74.3287 231.75 71.786 231.75 87.2872V90.5111C231.75 92.2785 230.631 95.0221 228.87 96.4002C227.109 97.7752 225.427 98.3151 223.236 98.5851C221.848 98.7579 220.914 98.8645 219.884 98.8645C218.856 98.8645 217.922 98.761 216.528 98.5914C214.344 98.3214 212.655 97.7846 210.9 96.4128C209.133 95.0347 208.255 92.5767 208.255 90.8062V85.8055H216.816V91.0322C216.816 91.6601 217.179 92.3978 217.903 92.7651C218.502 93.0727 219.103 93.2422 219.884 93.2422C220.664 93.2422 221.347 93.0727 221.98 92.7651C222.748 92.3946 223.133 91.6538 223.133 91.0228V88.1819C223.133 77.8132 208.255 78.1365 208.255 65.4291M171.689 53.9313H180.25V54.9045C181.488 54.3896 182.776 54.0412 183.734 53.9564C184.812 53.8592 185.564 53.8246 186.956 53.8497C187.946 53.8648 188.77 53.8778 189.534 53.9878V59.1235C188.735 58.7437 187.648 58.4329 186.439 58.3889C184.866 58.3262 183.647 58.5773 182.447 58.9666C180.983 59.4406 180.25 61.0416 180.25 61.8703V98.3821H171.689V53.9313V53.9313Z" fill="#085ABD"/>
</svg>
