<svg width="243" height="140" viewBox="0 0 243 140" fill="none" xmlns="http://www.w3.org/2000/svg">
<path d="M234.684 36.0751C234.871 36.0751 235.151 36.0751 235.244 35.7953C235.337 35.702 235.337 35.6087 235.337 35.5165C235.337 35.3299 235.244 35.1423 235.058 35.0501C234.871 34.9568 234.684 34.9568 234.405 34.9568H234.218V35.9818H234.684M234.405 34.4914C234.871 34.4914 235.151 34.4914 235.337 34.5847C235.989 34.7703 235.989 35.4232 235.989 35.6087V35.8886C235.989 36.0751 235.896 36.355 235.523 36.5405C235.523 36.5405 235.43 36.6338 235.337 36.6338L236.176 38.1252H235.337L234.684 36.7271H234.218V38.1252H233.474V34.4914H234.405ZM234.684 39.6166C236.455 39.6166 237.946 38.2185 237.946 36.355C237.946 34.4914 236.548 33.0933 234.684 33.0933C232.914 33.0933 231.423 34.5847 231.423 36.355C231.423 38.1252 232.914 39.6166 234.684 39.6166ZM232.169 36.355C232.169 34.9568 233.286 33.8385 234.778 33.8385C236.176 33.8385 237.293 34.9568 237.293 36.355C237.293 37.7531 236.176 38.8704 234.778 38.8704C233.286 38.9637 232.169 37.7531 232.169 36.355ZM209.527 57.1336C205.24 57.1336 201.606 54.244 200.489 50.3314H224.248L227.51 45.2062H200.489C201.606 41.2936 205.24 38.404 209.527 38.404H225.833L229.094 33.2798H209.154C201.14 33.2798 194.711 39.8022 194.711 47.7227C194.711 55.7355 201.233 62.1655 209.154 62.1655H226.3L229.559 57.0403H209.527M141.506 62.1655H158.744L162.005 57.0403H141.972C136.754 57.0403 132.56 52.8469 132.56 47.7227C132.56 42.5042 136.754 38.404 141.972 38.404H158.279L161.54 33.2798H141.6C133.585 33.2798 127.064 39.8022 127.064 47.7227C127.064 55.7355 133.585 62.1655 141.506 62.1655ZM35.9338 57.1336H19.8149C14.6897 57.1336 10.4963 52.9402 10.4963 47.816C10.4963 42.5975 14.6897 38.4973 19.8149 38.4973H35.8405C41.059 38.4973 45.2524 42.6908 45.2524 47.816C45.2524 52.9402 41.059 57.1336 35.9338 57.1336ZM19.4418 62.1655H36.2146C44.2274 62.1655 50.6564 55.7355 50.6564 47.7227C50.6564 39.7089 44.2274 33.2798 36.2146 33.2798H19.4418C11.5213 33.2798 5 39.8022 5 47.7227C5 55.7355 11.5213 62.1655 19.4418 62.1655ZM78.0507 52.8469C83.4547 52.8469 87.8347 48.4679 87.8347 43.0639C87.8347 37.6588 83.4547 33.2798 78.0507 33.2798H53.7316V62.1655H59.3232V38.404H77.6786C80.2874 38.404 82.3374 40.4551 82.3374 43.0639C82.3374 45.6726 80.2874 47.7227 77.6786 47.7227H62.0242L78.6104 62.1655H86.7164L75.5353 52.7546H78.0507M170.019 57.1336V33.2798H164.428V59.4635C164.428 60.2077 164.709 60.8607 165.266 61.4203C165.825 61.979 166.57 62.2588 167.317 62.2588H192.662L195.922 57.1336H170.019ZM101.998 52.0084H116.814L108.988 39.3358L94.5437 62.1655H87.928L105.446 34.7703C106.19 33.6529 107.496 33 108.894 33C110.291 33 111.503 33.6529 112.248 34.7703L129.858 62.2588H123.337L120.262 57.1336H105.259L101.998 52.0084Z" fill="#E72F2D"/>
<path d="M84.5723 101.205C79.075 101.205 78.8884 98.1304 78.7962 96.4524H75.3479C75.3479 97.665 75.3479 99.5275 76.7461 101.299C78.6096 103.721 82.3366 104 84.1069 104C90.2561 104 93.5177 100.739 93.5177 96.5467C93.5177 95.5206 93.4245 93.285 91.1878 91.7936C89.957 90.9736 89.3045 90.8036 85.2797 89.755C84.7359 89.6134 84.1306 89.4557 83.4539 89.2781C80.5664 88.5329 79.1683 87.88 79.1683 85.7377C79.1683 83.4078 81.2183 81.9163 84.479 81.9163C86.8089 81.9163 89.3243 82.5693 89.5109 85.5511H92.9581C92.9545 85.5119 92.951 85.4719 92.9474 85.4311C92.8569 84.406 92.7227 82.8853 91.4687 81.451C89.5109 79.4019 86.3435 79.1221 84.7598 79.1221C80.2866 79.1221 75.72 81.2654 75.72 86.1098C75.72 87.6945 76.2797 89.4647 78.2365 90.7696C79.3769 91.5588 80.847 91.9348 84.047 92.7533L84.0631 92.7574C84.2577 92.8072 84.4588 92.8586 84.6665 92.9119L84.9126 92.9733C88.1249 93.7748 90.1638 94.2834 90.1638 96.9188C90.1638 98.1304 89.5109 101.205 84.5723 101.205Z" fill="#231F20"/>
<path d="M15.0614 79.5876H7.70166V103.348H12.546V83.5945L21.7713 103.441H28.759V79.5876H24.0079V98.3171L15.0614 79.5876Z" fill="#231F20"/>
<path d="M50.0972 79.5876H34.163V103.441H50.4693V99.5277H39.2882V93.0996H49.4442V89.185H39.2882V83.5012H50.0972V79.5876Z" fill="#231F20"/>
<path d="M60.4398 83.5012H53.2646V79.5876H72.646V83.5012H65.565V103.441H60.4398V83.5012Z" fill="#231F20"/>
<path d="M102.09 79.5876V94.3102C102.09 96.8257 102.65 97.944 103.115 98.5959C104.607 100.553 106.935 100.925 108.52 100.925C114.949 100.925 114.949 95.8939 114.949 94.1237V79.5876H118.117V94.3102C118.117 95.6141 118.117 98.2228 116.161 100.646C113.831 103.628 110.197 103.908 108.427 103.908C106.189 103.908 102.183 103.255 100.041 100.087C99.2949 99.0613 98.6429 97.6652 98.6429 94.1237V79.5876H102.09Z" fill="#231F20"/>
<path d="M125.012 79.5876H128.274V103.441H125.012V79.5876Z" fill="#231F20"/>
<path d="M141.133 103.441V82.3829H133.119V79.5876H152.314V82.3829H144.301V103.441H141.133Z" fill="#231F20"/>
<path d="M171.229 79.5876H156.32V103.441H171.509V100.553H159.581V92.6333H170.669V89.838H159.581V82.3829H171.229V79.5876Z" fill="#231F20"/>
</svg>
