<svg width="180" height="140" viewBox="0 0 180 140" fill="none" xmlns="http://www.w3.org/2000/svg">
<path d="M76.155 23.8696C81.5919 18.2045 89.1615 14.6911 97.5331 14.6911C108.662 14.6911 118.371 20.8966 123.541 30.1087C128.035 28.1011 133.008 26.9844 138.241 26.9844C158.313 26.9844 174.585 43.3986 174.585 63.6456C174.585 83.8951 158.313 100.309 138.241 100.309C135.791 100.309 133.397 100.064 131.082 99.5961C126.529 107.718 117.852 113.205 107.893 113.205C103.724 113.205 99.7809 112.242 96.2699 110.53C91.6542 121.387 80.9003 129 68.3669 129C55.3148 129 44.191 120.741 39.9212 109.159C38.0552 109.555 36.122 109.762 34.1383 109.762C18.5983 109.762 6 97.0337 6 81.3303C6 70.8069 11.6603 61.6188 20.0704 56.7029C18.3389 52.7188 17.3759 48.3217 17.3759 43.6988C17.3759 25.6395 32.037 11 50.1203 11C60.7373 11 70.1728 16.048 76.155 23.8696Z" fill="#00A1E0"/>
<path d="M106.473 52.5257C106.16 52.4297 105.877 52.3648 105.507 52.2952C105.133 52.228 104.686 52.1943 104.179 52.1943C102.412 52.1943 101.019 52.6938 100.041 53.6785C99.0689 54.6583 98.4085 56.1496 98.077 58.1116L97.957 58.772H95.738C95.738 58.772 95.469 58.7624 95.4114 59.0554L95.0488 61.0895C95.0223 61.2816 95.1064 61.4041 95.3658 61.4041H97.5247L95.3345 73.6325C95.164 74.6171 94.9671 75.4264 94.7486 76.0412C94.5348 76.6464 94.3259 77.1003 94.0665 77.4317C93.8168 77.7487 93.5814 77.984 93.1732 78.1209C92.837 78.2338 92.4479 78.2866 92.0229 78.2866C91.7875 78.2866 91.4729 78.2482 91.24 78.2002C91.0094 78.1545 90.887 78.1041 90.7117 78.0296C90.7117 78.0296 90.4595 77.9336 90.3586 78.1857C90.2794 78.3947 89.703 79.9773 89.6334 80.1718C89.5661 80.3663 89.6622 80.5176 89.7847 80.5632C90.0729 80.6641 90.2866 80.7313 90.678 80.825C91.2208 80.9523 91.6795 80.9595 92.1093 80.9595C93.0075 80.9595 93.8288 80.8322 94.5084 80.5872C95.1904 80.3399 95.786 79.91 96.3143 79.3289C96.8835 78.6997 97.2413 78.0417 97.5823 77.1411C97.921 76.2525 98.2115 75.1478 98.4421 73.8606L100.644 61.4041H103.862C103.862 61.4041 104.134 61.4137 104.189 61.1183L104.554 59.0866C104.578 58.8921 104.496 58.772 104.234 58.772H101.11C101.113 58.7618 101.118 58.7294 101.126 58.6783L101.126 58.6781C101.173 58.3806 101.321 57.4504 101.626 56.5675C101.78 56.128 102.068 55.7702 102.311 55.5252C102.551 55.2851 102.827 55.1146 103.13 55.0161C103.44 54.9152 103.793 54.8672 104.179 54.8672C104.472 54.8672 104.763 54.9008 104.981 54.9465C105.284 55.0113 105.402 55.0449 105.481 55.0689C105.8 55.165 105.843 55.0713 105.906 54.9176L106.653 52.8668C106.73 52.6458 106.54 52.5522 106.473 52.5257Z" fill="white"/>
<path d="M30.4656 72.5419C30.4151 72.4943 30.3315 72.4154 30.419 72.1868L31.101 70.2944C31.2091 69.9678 31.4564 70.0759 31.5549 70.1383C31.6346 70.1864 31.706 70.2327 31.7805 70.2809C31.881 70.3461 31.9871 70.4148 32.1264 70.4962C34.1365 71.7666 35.9976 71.7786 36.5812 71.7786C38.0845 71.7786 39.0163 70.9813 39.0163 69.9102V69.8526C39.0163 68.6818 37.5855 68.2421 35.9234 67.7312L35.551 67.6168C33.2671 66.9636 30.8296 66.027 30.8296 63.138V63.0803C30.8296 60.3402 33.039 58.4286 36.2042 58.4286L36.55 58.4262C38.4087 58.4262 40.2051 58.9666 41.5043 59.7567C41.6219 59.8287 41.7372 59.9632 41.6724 60.1457C41.6123 60.3138 41.036 61.8652 40.9687 62.0381C40.8463 62.3623 40.5125 62.1462 40.5125 62.1462C39.3741 61.517 37.6066 61.0223 36.1177 61.0223C34.7777 61.0223 33.9131 61.7331 33.9131 62.6985V62.7585C33.9131 63.8869 35.3915 64.3672 37.1054 64.9241L37.4025 65.0208C39.6767 65.7388 42.0998 66.733 42.0998 69.4707V69.5284C42.0998 72.4894 39.9529 74.329 36.4947 74.329C34.7969 74.329 33.1735 74.0624 31.454 73.1498C31.3862 73.1111 31.3185 73.0733 31.2509 73.0355C30.9954 72.8928 30.7417 72.751 30.491 72.5687C30.4852 72.5604 30.4761 72.5518 30.4656 72.5419Z" fill="white"/>
<path d="M81.0916 72.5419C81.0411 72.4943 80.9575 72.4154 81.0449 72.1868L81.7269 70.2944C81.8278 69.9847 82.1208 70.0975 82.1832 70.1383C82.223 70.164 82.2609 70.1887 82.2984 70.2131C82.4332 70.301 82.5627 70.3853 82.7524 70.4962C84.7624 71.7666 86.6236 71.7786 87.2072 71.7786C88.7105 71.7786 89.6447 70.9813 89.6447 69.9102V69.8526C89.6447 68.6826 88.2133 68.2426 86.5525 67.7322L86.1769 67.6168C83.8931 66.9636 81.4556 66.027 81.4556 63.138V63.0803C81.4556 60.3402 83.665 58.4286 86.8301 58.4286L87.1759 58.4262C89.0347 58.4262 90.831 58.9666 92.1302 59.7567C92.2479 59.8287 92.3632 59.9632 92.2983 60.1457C92.2383 60.3138 91.6619 61.8652 91.5947 62.0381C91.4722 62.3623 91.1384 62.1462 91.1384 62.1462C90.0001 61.517 88.2326 61.0223 86.7437 61.0223C85.4036 61.0223 84.5391 61.7331 84.5391 62.6985V62.7585C84.5391 63.8869 86.0174 64.3672 87.7314 64.9241L87.7331 64.9247L88.0285 65.0208C90.3027 65.7388 92.7258 66.733 92.7258 69.4707V69.5284C92.7258 72.4894 90.5789 74.329 87.1207 74.329C85.4228 74.329 83.7994 74.0624 82.08 73.1498C82.0122 73.1112 81.9446 73.0734 81.8771 73.0357L81.8768 73.0355C81.6213 72.8927 81.3676 72.751 81.117 72.5687C81.1112 72.5604 81.1021 72.5518 81.0916 72.5419Z" fill="white"/>
<path fill-rule="evenodd" clip-rule="evenodd" d="M118.492 63.2837C118.209 62.3255 117.767 61.4802 117.179 60.7765C116.59 60.0705 115.846 59.5037 114.962 59.0907C114.081 58.68 113.039 58.4711 111.869 58.4711C110.697 58.4711 109.655 58.68 108.774 59.0907C107.89 59.5037 107.145 60.0705 106.555 60.7765C105.969 61.4826 105.527 62.3279 105.241 63.2837C104.96 64.2371 104.818 65.2793 104.818 66.3864C104.818 67.4935 104.96 68.5382 105.241 69.4891C105.527 70.4449 105.966 71.2903 106.557 71.9963C107.145 72.7023 107.892 73.2667 108.774 73.6678C109.657 74.0688 110.697 74.2729 111.869 74.2729C113.039 74.2729 114.078 74.0688 114.962 73.6678C115.844 73.2667 116.59 72.7023 117.179 71.9963C117.767 71.2927 118.209 70.4473 118.492 69.4891C118.776 68.5358 118.917 67.4911 118.917 66.3864C118.917 65.2817 118.776 64.2371 118.492 63.2837ZM115.606 66.3864C115.606 68.0603 115.294 69.3787 114.679 70.3105C114.071 71.2326 113.151 71.6817 111.869 71.6817C110.584 71.6817 109.669 71.235 109.071 70.3105C108.466 69.3811 108.159 68.0603 108.159 66.3864C108.159 64.715 108.466 63.3989 109.071 62.4768C109.669 61.5642 110.584 61.1199 111.869 61.1199C113.151 61.1199 114.071 61.5642 114.681 62.4768C115.294 63.3989 115.606 64.715 115.606 66.3864Z" fill="white"/>
<path d="M141.829 71.0597C141.829 71.0597 142.101 70.954 142.197 71.235L142.905 73.1922C142.997 73.4348 142.788 73.5356 142.788 73.5356C141.697 73.9655 140.18 74.2657 138.7 74.2657C136.198 74.2657 134.279 73.5428 133.002 72.1211C131.726 70.7043 131.08 68.7687 131.08 66.3744C131.08 65.2673 131.239 64.2202 131.551 63.2668C131.866 62.311 132.336 61.4657 132.956 60.7597C133.576 60.0536 134.358 59.4869 135.281 59.0762C136.205 58.6631 137.286 58.4566 138.499 58.4566C139.31 58.4566 140.04 58.5071 140.665 58.6031C141.332 58.704 142.216 58.9417 142.591 59.0882C142.658 59.1146 142.845 59.2083 142.768 59.4268C142.585 59.9513 142.44 60.3512 142.287 60.7742C142.215 60.9729 142.141 61.1767 142.06 61.4009C141.952 61.6986 141.724 61.6002 141.724 61.6002C140.773 61.3 139.865 61.1631 138.674 61.1631C137.245 61.1631 136.174 61.641 135.47 62.5728C134.762 63.5094 134.368 64.7389 134.363 66.3744C134.358 68.1707 134.805 69.4987 135.602 70.32C136.397 71.1413 137.507 71.5568 138.904 71.5568C139.474 71.5568 140.004 71.5184 140.487 71.4439C140.963 71.3695 141.409 71.2206 141.829 71.0597Z" fill="white"/>
<path fill-rule="evenodd" clip-rule="evenodd" d="M156.966 62.7394C156.721 61.8148 156.114 60.8807 155.715 60.4532C155.086 59.776 154.471 59.3029 153.861 59.0387C153.064 58.6977 152.108 58.4719 151.061 58.4719C149.841 58.4719 148.734 58.6761 147.836 59.0987C146.935 59.5214 146.179 60.0978 145.586 60.8158C144.992 61.5315 144.546 62.384 144.262 63.3518C143.977 64.3148 143.833 65.3642 143.833 66.4713C143.833 67.5976 143.981 68.6471 144.277 69.5909C144.575 70.5419 145.05 71.38 145.694 72.074C146.335 72.7729 147.161 73.3204 148.15 73.7022C149.133 74.0817 150.326 74.2786 151.697 74.2762C154.519 74.2666 156.006 73.6374 156.618 73.2988C156.726 73.2388 156.829 73.1331 156.7 72.8305L156.061 71.0414C155.965 70.7748 155.694 70.8733 155.694 70.8733C155.66 70.8857 155.626 70.8986 155.591 70.9119L155.503 70.9455C154.811 71.2104 153.798 71.5981 151.683 71.5937C150.168 71.5913 149.044 71.1447 148.34 70.4458C147.617 69.7302 147.264 68.6783 147.202 67.1942L156.974 67.2038C156.974 67.2038 157.23 67.199 157.257 66.9492C157.257 66.9477 157.257 66.9457 157.258 66.9434C157.258 66.9406 157.258 66.9372 157.259 66.9333C157.26 66.926 157.261 66.9167 157.263 66.9056L157.263 66.904C157.306 66.5864 157.551 64.7935 156.966 62.7394ZM147.247 64.7831C147.384 63.8537 147.641 63.0804 148.038 62.4776C148.636 61.5627 149.548 61.0608 150.83 61.0608C152.113 61.0608 152.961 61.5651 153.568 62.4776C153.972 63.0804 154.147 63.8873 154.217 64.7831H147.247Z" fill="white"/>
<path fill-rule="evenodd" clip-rule="evenodd" d="M77.458 60.4532C77.8567 60.8807 78.4619 61.8148 78.7068 62.7394C79.2938 64.7937 79.049 66.5868 79.0056 66.9041L79.0056 66.9047L79.0054 66.9058L79.0027 66.9259C79.0012 66.9369 79.0002 66.9447 78.9998 66.9492C78.9734 67.199 78.7164 67.2038 78.7164 67.2038L68.9447 67.1942C69.0072 68.6783 69.3602 69.7302 70.083 70.4458C70.7867 71.1447 71.9106 71.5913 73.4235 71.5937C75.5419 71.5981 76.5532 71.2108 77.2449 70.9459L77.2452 70.9458C77.3117 70.9203 77.3752 70.896 77.4364 70.8733C77.4364 70.8733 77.7078 70.7748 77.8063 71.0414L78.4427 72.8305C78.5723 73.1331 78.4691 73.2388 78.361 73.2988C77.7486 73.6374 76.2621 74.2666 73.4403 74.2762C72.0691 74.2786 70.8755 74.0817 69.8933 73.7022C68.9039 73.3204 68.0778 72.7729 67.4366 72.074C66.793 71.38 66.3175 70.5419 66.0197 69.5909C65.7243 68.6471 65.5754 67.5976 65.5754 66.4713C65.5754 65.3642 65.7219 64.3148 66.0053 63.3518C66.2887 62.384 66.7354 61.5315 67.3285 60.8158C67.9217 60.0978 68.6782 59.5214 69.5787 59.0987C70.4769 58.6761 71.5864 58.4719 72.8039 58.4719C73.851 58.4719 74.8068 58.6977 75.6041 59.0387C76.2141 59.3029 76.8288 59.776 77.458 60.4532ZM69.7805 62.4776C69.3842 63.0804 69.1296 63.8537 68.9904 64.7831H75.9595C75.8899 63.8873 75.7146 63.0804 75.3135 62.4776C74.7035 61.5651 73.8558 61.0608 72.5734 61.0608C71.291 61.0608 70.3784 61.5627 69.7805 62.4776Z" fill="white"/>
<path fill-rule="evenodd" clip-rule="evenodd" d="M51.757 64.3156C51.3607 64.2867 50.8468 64.2699 50.232 64.2699C49.3939 64.2699 48.5846 64.3756 47.8257 64.5797C47.0621 64.7839 46.3752 65.1033 45.7845 65.5259C45.1913 65.951 44.7134 66.4937 44.3676 67.1373C44.0218 67.7809 43.8464 68.5398 43.8464 69.3899C43.8464 70.2545 43.9953 71.0061 44.2931 71.6209C44.5909 72.2381 45.0208 72.752 45.5683 73.1483C46.1111 73.5445 46.7811 73.8351 47.5592 74.0104C48.3252 74.1857 49.1946 74.2746 50.1456 74.2746C51.147 74.2746 52.146 74.1929 53.1138 74.0272C54.072 73.8639 55.2488 73.6262 55.5754 73.5517C55.8996 73.4749 56.2598 73.3764 56.2598 73.3764C56.5023 73.3164 56.4831 73.057 56.4831 73.057L56.4783 64.121C56.4783 62.1614 55.9548 60.7085 54.9246 59.808C53.8991 58.9098 52.3886 58.4559 50.4362 58.4559C49.7037 58.4559 48.5246 58.5568 47.8185 58.6985C47.8185 58.6985 45.6836 59.1115 44.8046 59.7984C44.8046 59.7984 44.6125 59.9184 44.7182 60.1874L45.4098 62.0462C45.4963 62.2863 45.7292 62.2047 45.7292 62.2047C45.7292 62.2047 45.8037 62.1758 45.8901 62.1254C47.7705 61.1024 50.148 61.1336 50.148 61.1336C51.2046 61.1336 52.0163 61.3449 52.5639 61.7652C53.097 62.1734 53.3684 62.7906 53.3684 64.0922V64.5053C52.5279 64.3852 51.757 64.3156 51.757 64.3156ZM47.869 71.1814C47.4871 70.8765 47.4343 70.7996 47.3046 70.6027C47.1125 70.3025 47.014 69.875 47.014 69.3323C47.014 68.4726 47.2974 67.8554 47.8858 67.4399C47.8786 67.4423 48.7263 66.7075 50.7195 66.7339C52.1196 66.7531 53.3708 66.9596 53.3708 66.9596V71.4024H53.3732C53.3732 71.4024 52.1316 71.669 50.7339 71.753C48.7455 71.8731 47.8617 71.179 47.869 71.1814Z" fill="white"/>
<path d="M130.423 58.93C130.488 58.954 130.644 59.0597 130.57 59.2806C130.479 59.5472 130.003 60.8848 129.835 61.3315C129.772 61.502 129.667 61.6173 129.48 61.5957C129.48 61.5957 128.918 61.4636 128.406 61.4636C128.051 61.4636 127.549 61.5092 127.095 61.6485C126.651 61.7854 126.245 62.0279 125.887 62.3738C125.531 62.722 125.243 63.2071 125.032 63.8123C124.816 64.4246 124.708 65.3996 124.708 66.3771V73.6584C124.708 73.8217 124.576 73.9562 124.412 73.9562H121.845C121.682 73.9562 121.547 73.8217 121.547 73.6584V59.0837C121.547 58.918 121.665 58.7859 121.828 58.7859H124.333C124.496 58.7859 124.614 58.918 124.614 59.0837V60.2725C124.989 59.7705 125.661 59.3287 126.266 59.0549C126.876 58.7811 127.558 58.5746 128.785 58.649C129.427 58.6899 130.258 58.8652 130.423 58.93Z" fill="white"/>
<path d="M62.5385 73.9545C62.7018 73.9545 62.8195 73.8225 62.8195 73.6592V52.8045C62.8195 52.6412 62.7018 52.5092 62.5385 52.5092H59.9473C59.784 52.5092 59.6687 52.6412 59.6687 52.8045V73.6592C59.6687 73.8225 59.784 73.9545 59.9473 73.9545H62.5385Z" fill="white"/>
</svg>
