<svg width="237" height="140" viewBox="0 0 237 140" fill="none" xmlns="http://www.w3.org/2000/svg">
<path d="M67.68 41.4114C67.6527 41.2411 67.5696 41.0847 67.4439 40.9668C67.3182 40.8489 67.1569 40.7762 66.9855 40.7601C66.7081 40.7157 60.6175 40.2933 60.6175 40.2933L55.9735 35.6408C55.5564 35.174 54.6289 35.3118 54.2784 35.4096C54.234 35.4096 53.3509 35.6874 51.9109 36.1565C50.5086 32.0974 48.028 28.3718 43.6614 28.3718H43.2886C42.035 26.7491 40.504 26 39.206 26C29.035 26.0445 24.1847 38.7551 22.6537 45.2504L15.5446 47.4355C13.3635 48.1313 13.2814 48.1824 12.993 50.2653L7 96.5752L51.9264 105L76.2756 99.7406C76.2756 99.6961 67.7266 41.856 67.6822 41.4159L67.68 41.4114ZM49.4192 36.9389C48.2876 37.3124 46.9785 37.6858 45.6117 38.106V37.2679C45.6561 35.1739 45.3388 33.0889 44.6842 31.0971C46.9607 31.4484 48.4917 34.0091 49.4192 36.9389ZM41.9418 31.6351C42.6851 33.8291 43.0512 36.1409 42.958 38.4594V38.8773L35.1034 41.3225C36.6411 35.5719 39.4745 32.7287 41.9374 31.6595L41.9418 31.6351ZM38.9242 28.8053C39.3902 28.8164 39.8406 28.9609 40.2244 29.2232C36.9473 30.7526 33.4837 34.6116 31.9971 42.3384L25.7844 44.2456C27.5373 38.3816 31.6266 28.792 38.9198 28.792L38.9242 28.8053Z" fill="#95BF47"/>
<path d="M66.9875 40.7654C66.7101 40.7209 60.6195 40.2986 60.6195 40.2986L55.9755 35.646C55.8047 35.4682 55.5717 35.3704 55.3254 35.3682L51.9351 104.999L76.2843 99.7391L67.6842 41.4589C67.6265 41.1033 67.3469 40.8187 66.9897 40.7632L66.9875 40.7654Z" fill="#5E8E3E"/>
<path d="M43.6574 54.2619L40.6354 63.198C38.8093 62.3089 36.8102 61.8354 34.7822 61.7976C30.0406 61.7976 29.812 64.7763 29.812 65.5232C29.812 69.5911 40.4512 71.1561 40.4512 80.7457C40.4512 88.2858 35.6652 93.1273 29.2529 93.1273C21.5403 93.1273 17.5908 88.3325 17.5908 88.3325L19.641 81.4859C19.641 81.4859 23.6792 84.9759 27.1228 84.9759C27.5344 84.9922 27.945 84.9245 28.3297 84.7769C28.7144 84.6294 29.0651 84.405 29.3606 84.1175C29.6561 83.83 29.8902 83.4853 30.0487 83.1044C30.2071 82.7235 30.2866 82.3143 30.2824 81.9016C30.2824 76.5444 21.547 76.3132 21.547 67.5638C21.547 60.206 26.841 53.0371 37.4824 53.0371C41.6649 53.0994 43.6641 54.2597 43.6641 54.2597L43.6574 54.2619Z" fill="white"/>
<path d="M97.4153 67.5617C95.678 66.6281 94.7793 65.8211 94.7793 64.7164C94.7793 63.3159 95.9997 62.4112 97.9811 62.4112C99.4519 62.4431 100.902 62.761 102.252 63.347L103.854 58.47C103.854 58.47 102.385 57.3318 98.0809 57.3318C92.0768 57.3318 87.9055 60.7774 87.9055 65.6189C87.9055 68.3575 89.8403 70.4648 92.4407 71.9675C94.5419 73.1901 95.2808 73.9992 95.2808 75.2752C95.2808 76.5511 94.2468 77.6159 92.2787 77.6159C89.3788 77.6159 86.643 76.1132 86.643 76.1132L84.9434 80.9903C84.9434 80.9903 87.4795 82.693 91.7152 82.693C97.8834 82.693 102.321 79.6521 102.321 74.1571C102.354 71.1828 100.118 69.1111 97.4397 67.5395L97.4153 67.5617ZM122.031 57.3029C118.995 57.3029 116.595 58.7412 114.757 60.9619L114.655 60.9285L117.291 47.1109H110.424L103.752 82.2996H110.624L112.925 70.2692C113.826 65.7256 116.171 62.9158 118.361 62.9158C119.892 62.9158 120.495 63.9517 120.495 65.4566C120.495 66.4791 120.393 67.495 120.196 68.4975L117.595 82.2662H124.467L127.17 68.0396C127.465 66.5658 127.635 65.0698 127.669 63.5716C127.635 59.6948 125.601 57.3563 122.033 57.3563L122.031 57.3029ZM143.176 57.3029C134.904 57.3029 129.433 64.7897 129.433 73.0856C129.433 78.4339 132.734 82.7108 138.907 82.7108C147.021 82.7108 152.517 75.4241 152.517 66.9282C152.517 61.9822 149.617 57.3029 143.187 57.3029H143.176ZM139.803 77.4536C137.467 77.4536 136.469 75.453 136.469 72.9856C136.469 69.0421 138.497 62.5935 142.242 62.5935C144.676 62.5935 145.488 64.6986 145.488 66.7392C145.479 70.9738 143.447 77.4536 139.808 77.4536H139.803ZM170.09 57.3029C165.431 57.3029 162.817 61.3664 162.817 61.3664H162.715L163.121 57.7075H157.035L155.637 66.8326L150.866 92.0315H157.707L159.611 81.8372H159.744C159.744 81.8372 161.142 82.7397 163.782 82.7397C171.854 82.7397 177.124 74.4527 177.124 66.0768C177.157 61.4642 175.096 57.323 170.086 57.323L170.09 57.3029ZM163.518 77.5537C162.481 77.5743 161.472 77.2173 160.678 76.5489L161.814 70.098C162.626 65.8189 164.849 62.9447 167.25 62.9447C169.351 62.9447 169.984 64.8831 169.984 66.7236C169.995 71.2073 167.365 77.5559 163.527 77.5559L163.518 77.5537ZM186.971 47.411C185.919 47.4043 184.907 47.8222 184.168 48.5714C183.43 49.3205 183.019 50.3363 183.059 51.39C183.059 53.4217 184.362 54.8355 186.305 54.8355H186.407C186.937 54.8566 187.466 54.7686 187.961 54.577C188.456 54.3853 188.907 54.0941 189.285 53.7212C189.663 53.3483 189.961 52.9018 190.16 52.4091C190.36 51.9164 190.456 51.388 190.443 50.8565C190.443 48.8559 189.108 47.411 187.004 47.411H186.971ZM177.372 82.2329H184.244L188.912 57.8476H182.016M206.423 57.8142H201.624L201.859 56.6761C202.265 54.3354 203.661 52.2303 205.915 52.2303C206.662 52.2305 207.405 52.3429 208.118 52.5637L209.445 47.1776C209.445 47.1776 208.225 46.5774 205.709 46.5774C203.26 46.5164 200.87 47.3339 198.97 48.8826C196.634 50.8832 195.531 53.7596 194.976 56.6694L194.754 57.8075H191.553L190.55 62.9869H193.752L190.099 82.2373H196.995L200.648 62.9869H205.387L206.319 57.8075L206.423 57.8142ZM222.971 57.8476L216.732 74.6239H216.63L214.93 57.8476H207.688L211.826 80.2367C211.925 80.6194 211.878 81.0256 211.693 81.3749C210.794 83.0354 209.514 84.4558 207.956 85.5206C206.763 86.3431 205.46 86.9966 204.087 87.459L205.99 93.3052C208.508 92.6302 210.818 91.3402 212.716 89.5507C215.851 86.6076 218.751 82.064 221.724 75.8798L230.129 57.8342H222.969L222.971 57.8476Z" fill="black"/>
</svg>
