<svg width="322" height="140" viewBox="0 0 322 140" fill="none" xmlns="http://www.w3.org/2000/svg">
<path fill-rule="evenodd" clip-rule="evenodd" d="M99.9718 46H13.8227C8.37082 46 3.95736 50.4567 4.00031 55.8654V88.7501C4.00031 94.2019 8.41409 98.6154 13.866 98.6154H54.6688L73.318 109L69.0776 98.6154H99.9718C105.424 98.6154 109.837 94.2019 109.837 88.7501V55.8654C109.837 50.4135 105.424 46 99.9718 46ZM12.0056 53.6154C10.7941 53.7019 9.88541 54.1346 9.27965 54.9567C8.67389 55.7356 8.45755 56.7308 8.58735 57.8558C11.1402 74.0819 13.52 85.0289 15.7268 90.6972C16.5922 92.774 17.5874 93.7694 18.7556 93.6829C20.5729 93.5529 22.7364 91.0434 25.2893 86.154C26.6306 83.3845 28.7076 79.2309 31.5201 73.6923C33.8565 81.8701 37.0584 88.0146 41.0826 92.125C42.2077 93.2933 43.3759 93.8125 44.5007 93.726C45.4961 93.6395 46.2747 93.1202 46.794 92.1682C47.2267 91.3461 47.3998 90.3941 47.3133 89.3125C47.0536 85.3751 47.4432 79.8799 48.5249 72.8269C49.6497 65.5577 51.0344 60.3221 52.7219 57.2067C53.0681 56.5577 53.1978 55.9086 53.1547 55.1298C53.0681 54.1346 52.6354 53.3125 51.8134 52.6635C50.9913 52.0144 50.0825 51.7115 49.0873 51.7981C47.8326 51.8846 46.8806 52.4904 46.2316 53.7019C43.549 58.5913 41.645 66.5096 40.5202 77.5C38.8758 73.3462 37.4911 68.4567 36.4094 62.7019C35.9336 60.149 34.7653 58.9375 32.8613 59.0673C31.5633 59.1538 30.4816 60.0192 29.6162 61.6635L20.1402 79.7068C18.5825 73.4327 17.1114 65.7741 15.77 56.7308C15.4672 54.4808 14.2123 53.4423 12.0056 53.6154ZM95.3854 56.7309C98.4576 57.38 100.751 59.0242 102.308 61.7501C103.693 64.0867 104.385 66.8992 104.385 70.2742C104.385 74.7308 103.26 78.7982 101.01 82.5193C98.4142 86.8463 95.0392 89.0097 90.8422 89.0097C90.1067 89.0097 89.3278 88.9232 88.5055 88.7501C85.4335 88.1011 83.1402 86.457 81.5824 83.731C80.198 81.3511 79.5056 78.4954 79.5056 75.1636C79.5056 70.7069 80.6307 66.6396 82.8806 62.9617C85.5201 58.6348 88.8951 56.4713 93.049 56.4713C93.7845 56.4713 94.5634 56.5578 95.3854 56.7309ZM93.5682 80.1395C95.1692 78.7116 96.2509 76.5914 96.8567 73.7357C97.0298 72.7405 97.1594 71.6588 97.1594 70.5338C97.1594 69.279 96.8998 67.9377 96.3805 66.5963C95.7316 64.9088 94.8661 64.0002 93.8276 63.7838C92.2701 63.4809 90.7557 64.3463 89.3278 66.4665C88.1596 68.1107 87.4238 69.8415 87.0345 71.6155C86.818 72.6107 86.7314 73.6926 86.7314 74.7742C86.7314 76.029 86.9911 77.3703 87.5103 78.7116C88.1596 80.3991 89.0247 81.3077 90.0633 81.5242C91.145 81.7404 92.3132 81.2646 93.5682 80.1395ZM75.1786 61.7501C73.6208 59.0242 71.2844 57.38 68.2556 56.7309C67.4332 56.5578 66.6546 56.4713 65.9188 56.4713C61.7652 56.4713 58.3902 58.6348 55.7507 62.9617C53.5006 66.6396 52.3758 70.7069 52.3758 75.1636C52.3758 78.4954 53.0681 81.3511 54.4526 83.731C56.0104 86.457 58.3037 88.1011 61.3756 88.7501C62.1977 88.9232 62.9766 89.0097 63.7124 89.0097C67.9094 89.0097 71.2844 86.8463 73.8804 82.5193C76.1306 78.7982 77.2554 74.7308 77.2554 70.2742C77.2554 66.8992 76.5631 64.0867 75.1786 61.7501ZM69.7266 73.7357C69.121 76.5914 68.0391 78.7116 66.4381 80.1395C65.1833 81.2646 64.0151 81.7404 62.9334 81.5242C61.8949 81.3077 61.0295 80.3991 60.3805 78.7116C59.8612 77.3703 59.6016 76.029 59.6016 74.7742C59.6016 73.6926 59.6881 72.6107 59.9046 71.6155C60.294 69.8415 61.0295 68.1107 62.1977 66.4665C63.6258 64.3463 65.1402 63.4809 66.6978 63.7838C67.7363 64.0002 68.6017 64.9088 69.2507 66.5963C69.77 67.9377 70.0296 69.279 70.0296 70.5338C70.0296 71.6588 69.9431 72.7405 69.7266 73.7357Z" fill="#7F54B3"/>
<path fill-rule="evenodd" clip-rule="evenodd" d="M120.784 61.3667C117.885 64.2225 116.457 67.8571 116.457 72.2706C116.457 76.9869 117.885 80.8378 120.741 83.7369C123.597 86.6361 127.318 88.1071 131.948 88.1071C133.289 88.1071 134.803 87.8908 136.448 87.4147V80.4051C134.933 80.8378 133.635 81.0543 132.51 81.0543C130.217 81.0543 128.399 80.2754 127.015 78.761C125.63 77.2032 124.938 75.1264 124.938 72.4869C124.938 70.0205 125.63 67.9869 126.972 66.4292C128.356 64.8282 130.044 64.0494 132.121 64.0494C133.462 64.0494 134.89 64.2657 136.448 64.6984V57.6888C135.02 57.2994 133.419 57.1263 131.731 57.1263C127.318 57.083 123.683 58.5109 120.784 61.3667ZM150.813 57.083C146.832 57.083 143.717 58.4244 141.467 61.0638C139.217 63.7032 138.135 67.4244 138.135 72.184C138.135 77.3331 139.26 81.2705 141.467 83.9966C143.673 86.7226 146.919 88.1071 151.159 88.1071C155.27 88.1071 158.428 86.7226 160.635 83.9966C162.842 81.2705 163.967 77.4197 163.967 72.4869C163.967 67.5542 162.842 63.7465 160.592 61.0638C158.298 58.4244 155.053 57.083 150.813 57.083ZM154.231 79.583C153.452 80.7947 152.284 81.4005 150.813 81.4005C149.428 81.4005 148.39 80.7947 147.654 79.583C146.919 78.3714 146.573 75.9484 146.573 72.2706C146.573 66.6023 148 63.7897 150.9 63.7897C153.928 63.7897 155.486 66.6456 155.486 72.4004C155.443 75.9484 155.01 78.3714 154.231 79.583ZM185.342 57.9051L183.784 64.5254C183.395 66.2129 183.005 67.9436 182.659 69.7177L181.794 74.3043C180.972 69.7177 179.847 64.2657 178.419 57.9051H168.38L164.616 87.3716H172.145L174.178 67.0782L179.327 87.3716H184.693L189.625 67.1215L191.746 87.3716H199.621L195.64 57.9051H185.342ZM221.385 57.9051L219.827 64.5254C219.438 66.2129 219.049 67.9436 218.702 69.7177L217.837 74.3043C217.015 69.7177 215.89 64.2657 214.462 57.9051H204.423L200.659 87.3716H208.188L210.221 67.0782L215.37 87.3716H220.736L225.625 67.1215L227.746 87.3716H235.621L231.64 57.9051H221.385ZM245.875 75.7322H252.928V69.6311H245.875V64.2224H254.01V57.9484H237.914V87.4147H254.053V81.1408H245.875V75.7322ZM276.467 71.059C277.289 69.7177 277.722 68.333 277.722 66.9052C277.722 64.1359 276.64 61.9292 274.476 60.3282C272.313 58.7273 269.327 57.9051 265.606 57.9051H256.347V87.3716H264.308V73.9581H264.438L270.885 87.3716H279.279L272.919 74.0878C274.433 73.3956 275.645 72.4003 276.467 71.059ZM264.265 70.583V63.5734C266.169 63.6167 267.51 63.9196 268.332 64.5254C269.154 65.1311 269.544 66.083 269.544 67.4676C269.544 69.5013 267.77 70.5398 264.265 70.583ZM282.394 61.3667C279.496 64.2225 278.068 67.8571 278.068 72.2706C278.068 76.9869 279.496 80.8378 282.352 83.7369C285.208 86.6361 288.927 88.1071 293.559 88.1071C294.9 88.1071 296.415 87.8908 298.057 87.4147V80.4051C296.545 80.8378 295.245 81.0543 294.12 81.0543C291.828 81.0543 290.011 80.2754 288.626 78.761C287.241 77.2032 286.549 75.1264 286.549 72.4869C286.549 70.0205 287.241 67.9869 288.582 66.4292C289.967 64.8282 291.654 64.0494 293.73 64.0494C295.071 64.0494 296.501 64.2657 298.057 64.6984V57.6888C296.631 57.2994 295.03 57.1263 293.343 57.1263C288.972 57.083 285.294 58.5109 282.394 61.3667ZM308.227 81.0543V75.6888H315.278V69.5878H308.227V64.1792H316.403V57.9051H300.308V87.3716H316.448V81.0974H308.227V81.0543Z" fill="black"/>
</svg>
